HIERARCHY
ROOT Hips
{
	OFFSET 0.000000 0.000000 0.000000
	CHANNELS 6 Xposition Yposition Zposition Zrotation Yrotation Xrotation 
	JOINT LHipJoint
	{
		OFFSET 0.000000 0.000000 0.000000
		CHANNELS 3 Zrotation Yrotation Xrotation
		JOINT LeftUpLeg
		{
			OFFSET 1.363060 -1.794630 0.839290
			CHANNELS 3 Zrotation Yrotation Xrotation
			JOINT LeftLeg
			{
				OFFSET 2.448110 -6.726130 0.000000
				CHANNELS 3 Zrotation Yrotation Xrotation
				JOINT LeftFoot
				{
					OFFSET 2.562200 -7.039590 0.000000
					CHANNELS 3 Zrotation Yrotation Xrotation
					JOINT LeftToeBase
					{
						OFFSET 0.157640 -0.433110 2.322550
						CHANNELS 3 Zrotation Yrotation Xrotation
						End Site
						{
							OFFSET 0.000000 0.000000 0.000000
						}
					}
				}
			}
		}
	}
	JOINT RHipJoint
	{
		OFFSET 0.000000 0.000000 0.000000
		CHANNELS 3 Zrotation Yrotation Xrotation
		JOINT RightUpLeg
		{
			OFFSET -1.305520 -1.794630 0.839290
			CHANNELS 3 Zrotation Yrotation Xrotation
			JOINT RightLeg
			{
				OFFSET -2.542530 -6.985550 0.000000
				CHANNELS 3 Zrotation Yrotation Xrotation
				JOINT RightFoot
				{
					OFFSET -2.568260 -7.056230 0.000000
					CHANNELS 3 Zrotation Yrotation Xrotation
					JOINT RightToeBase
					{
						OFFSET -0.164730 -0.452590 2.363150
						CHANNELS 3 Zrotation Yrotation Xrotation
						End Site
						{
							OFFSET 0.000000 0.000000 0.000000
						}
					}
				}
			}
		}
	}
	JOINT LowerBack
	{
		OFFSET 0.000000 0.000000 0.000000
		CHANNELS 3 Zrotation Yrotation Xrotation
		JOINT Spine
		{
			OFFSET 0.028270 2.035590 -0.193380
			CHANNELS 3 Zrotation Yrotation Xrotation
			JOINT Spine1
			{
				OFFSET 0.056720 2.048850 -0.042750
				CHANNELS 3 Zrotation Yrotation Xrotation
				JOINT Neck
				{
					OFFSET 0.000000 0.000000 0.000000
					CHANNELS 3 Zrotation Yrotation Xrotation
					JOINT Neck1
					{
						OFFSET -0.054170 1.746240 0.172020
						CHANNELS 3 Zrotation Yrotation Xrotation
						JOINT Head
						{
							OFFSET 0.104070 1.761360 -0.123970
							CHANNELS 3 Zrotation Yrotation Xrotation
							End Site
							{
								OFFSET 0.000000 0.000000 0.000000
							}
						}
					}
				}
				JOINT LeftShoulder
				{
					OFFSET 0.000000 0.000000 0.000000
					CHANNELS 3 Zrotation Yrotation Xrotation
					JOINT LeftArm
					{
						OFFSET 3.362410 1.200890 -0.311210
						CHANNELS 3 Zrotation Yrotation Xrotation
						JOINT LeftForeArm
						{
							OFFSET 4.983000 -0.000000 -0.000000
							CHANNELS 3 Zrotation Yrotation Xrotation
							JOINT LeftHand
							{
								OFFSET 3.483560 -0.000000 -0.000000
								CHANNELS 3 Zrotation Yrotation Xrotation
								JOINT LeftFingerBase
								{
									OFFSET 0.000000 0.000000 0.000000
									CHANNELS 3 Zrotation Yrotation Xrotation
									JOINT LeftHandIndex1
									{
										OFFSET 0.715260 -0.000000 -0.000000
										CHANNELS 3 Zrotation Yrotation Xrotation
										End Site
										{
											OFFSET 0.000000 0.000000 0.000000
										}
									}
								}
								JOINT LThumb
								{
									OFFSET 0.000000 0.000000 0.000000
									CHANNELS 3 Zrotation Yrotation Xrotation
									End Site
									{
										OFFSET 0.000000 0.000000 0.000000
									}
								}
							}
						}
					}
				}
				JOINT RightShoulder
				{
					OFFSET 0.000000 0.000000 0.000000
					CHANNELS 3 Zrotation Yrotation Xrotation
					JOINT RightArm
					{
						OFFSET -3.136600 1.374050 -0.404650
						CHANNELS 3 Zrotation Yrotation Xrotation
						JOINT RightForeArm
						{
							OFFSET -5.241900 -0.000000 -0.000000
							CHANNELS 3 Zrotation Yrotation Xrotation
							JOINT RightHand
							{
								OFFSET -3.444170 -0.000000 -0.000000
								CHANNELS 3 Zrotation Yrotation Xrotation
								JOINT RightFingerBase
								{
									OFFSET 0.000000 0.000000 0.000000
									CHANNELS 3 Zrotation Yrotation Xrotation
									JOINT RightHandIndex1
									{
										OFFSET -0.622530 -0.000000 -0.000000
										CHANNELS 3 Zrotation Yrotation Xrotation
										End Site
										{
											OFFSET 0.000000 0.000000 0.000000
										}
									}
								}
								JOINT RThumb
								{
									OFFSET 0.000000 0.000000 0.000000
									CHANNELS 3 Zrotation Yrotation Xrotation
									End Site
									{
										OFFSET 0.000000 0.000000 0.000000
									}
								}
							}
						}
					}
				}
			}
		}
	}
}
MOTION
Frames: 8
Frame Time: 0.016667
-2.337147 17.686117 24.349003 -3.170790 18.446505 1.365509 -23.278905 -5.534734 -8.086663 1.315610 -8.087410 -22.423667 0.891683 -0.406113 3.682232 5.345707 17.788766 55.886321 0.000000 0.000000 0.000000 31.598350 11.426015 17.850567 -2.809636 12.737328 -8.661816 33.181528 19.040211 68.233051 37.052693 -81.067615 35.796760 0.000000 0.000000 0.000000 -12.045018 -3.956003 -4.423118 19.402703 -13.356715 72.954500 -6.828156 0.445823 -58.455846 2.505530 -0.489253 -23.493860 1.154935 -0.552170 14.100675 0.000000 0.000000 0.000000 -15.144447 10.363075 -6.980394 -80.439733 -12.641485 22.269169 -26.390839 -42.981008 0.398697 0.498541 3.006449 0.200119 0.478597 3.008584 0.000000 0.000000 0.000000 0.000000 0.000000 0.000000 0.000000 6.282040 -6.918133 6.790335 68.540250 24.235520 -1.493299 41.944711 -0.309401 -0.338068 -2.300322 4.392381 -0.169356 -2.317225 4.393832 -0.000000 0.000000 0.000000 0.000000 0.000000 0.000000 0.000000 
-2.473443 17.727860 24.656350 -3.424772 19.944948 1.593779 -21.971078 -3.959158 -7.154976 -0.769791 -9.172700 -22.646532 1.828972 -1.881218 2.994994 4.773045 16.453469 55.147983 0.000000 0.000000 0.000000 33.587641 12.298036 19.576304 -4.673632 13.210858 -10.297703 36.820188 21.233183 69.928754 33.326840 -81.883623 37.340718 0.000000 0.000000 0.000000 -15.416544 -5.657355 -5.368197 22.135180 -16.160893 75.972994 -6.961121 -0.083746 -58.254199 2.478834 0.069186 -24.391037 2.312464 -0.459321 14.242848 0.000000 0.000000 0.000000 -13.891909 8.477158 -8.462044 -82.655076 -14.294432 22.871815 -23.391952 -44.491514 0.418843 0.383757 3.009630 0.210339 0.361062 3.011064 0.000000 0.000000 0.000000 0.000000 0.000000 0.000000 0.000000 5.422462 -5.201124 7.369810 70.523083 27.097557 -2.249788 40.828938 -2.156716 -0.334257 -2.212787 4.475103 -0.167451 -2.229699 4.476550 -0.000000 0.000000 0.000000 0.000000 0.000000 0.000000 0.000000 
-2.604905 17.768327 24.956735 -3.446948 21.451473 1.970305 -20.521913 -2.307254 -6.123855 -3.099776 -10.404092 -22.668056 2.680184 -3.554215 1.802563 4.339766 15.234487 54.745560 0.000000 0.000000 0.000000 35.539793 12.616241 21.217190 -6.792575 13.145752 -12.066625 38.878187 22.904544 70.696117 30.851920 -82.340375 38.018574 0.000000 0.000000 0.000000 -18.713104 -7.024300 -6.416046 24.398148 -18.382497 78.367003 -6.592843 -0.396450 -57.912440 2.767989 0.454440 -25.164529 2.970691 -0.396145 14.391942 0.000000 0.000000 0.000000 -12.666056 7.111985 -9.443185 -84.046158 -15.203094 23.637995 -21.652660 -45.780904 0.446936 0.328473 3.012396 0.224524 0.303084 3.013440 0.000000 0.000000 0.000000 0.000000 0.000000 0.000000 0.000000 4.605474 -3.832443 7.894934 72.084776 29.319344 -2.736934 39.780305 -3.414240 -0.328097 -2.139190 4.514578 -0.164368 -2.155927 4.515977 -0.000000 0.000000 0.000000 0.000000 0.000000 0.000000 0.000000 
-2.708644 17.852063 25.259458 -3.371722 23.035313 2.516675 -19.447945 -0.546817 -4.707281 -4.981003 -11.623442 -22.834133 3.267573 -5.361992 -0.036094 4.093702 14.400021 55.091373 0.000000 0.000000 0.000000 37.249123 12.627639 23.026839 -9.160335 13.481509 -14.225456 40.460777 24.521270 70.971108 28.903168 -82.701200 37.984487 0.000000 0.000000 0.000000 -21.388924 -8.063538 -8.081172 26.422208 -20.456727 81.785529 -6.534054 -1.064163 -59.169347 2.873926 0.868701 -26.167856 3.627896 -0.328814 14.726656 0.000000 0.000000 0.000000 -12.049686 5.958818 -10.491906 -85.064898 -15.428887 25.084027 -19.759817 -47.387734 0.463367 0.248253 3.154389 0.232884 0.220541 3.154536 0.000000 0.000000 0.000000 0.000000 0.000000 0.000000 0.000000 3.906128 -3.440947 7.992485 73.414388 30.388403 -2.859957 38.781137 -4.183597 -0.316264 -2.078015 4.512564 -0.158444 -2.094307 4.513808 -0.000000 0.000000 0.000000 0.000000 0.000000 0.000000 0.000000 
-2.783204 17.949850 25.564987 -3.078337 24.339860 3.211559 -18.581188 1.376506 -3.006018 -6.543756 -12.787212 -23.014326 3.615919 -7.316021 -2.417790 4.026231 13.829257 55.940672 0.000000 0.000000 0.000000 38.949278 11.798876 24.880002 -11.350643 13.846423 -16.447763 40.532396 26.133331 70.608090 29.484881 -83.199949 36.616924 0.000000 0.000000 0.000000 -23.660141 -8.838506 -10.271504 28.697053 -22.345377 85.103994 -7.141193 -2.133527 -61.347029 2.560478 1.371887 -27.131922 4.477160 -0.247622 15.301624 0.000000 0.000000 0.000000 -12.116180 4.958153 -11.437276 -85.830911 -14.821563 26.931235 -17.753425 -49.048531 0.458056 0.118870 3.394354 0.230352 0.089942 3.393091 0.000000 0.000000 0.000000 0.000000 0.000000 0.000000 0.000000 3.308841 -3.938320 7.817446 74.476256 30.115004 -2.661195 37.805877 -4.413240 -0.300240 -2.041546 4.468622 -0.150418 -2.057101 4.469611 -0.000000 0.000000 0.000000 0.000000 0.000000 0.000000 0.000000 
-2.837206 18.068316 25.864123 -2.852585 25.254988 3.963591 -18.023200 3.150539 -1.233912 -7.312357 -13.712659 -23.489036 3.743286 -9.013929 -4.728100 4.056752 13.605846 56.959168 0.000000 0.000000 0.000000 40.321712 11.149154 26.653337 -13.674963 14.523493 -18.660369 40.147610 27.547839 69.838513 28.783179 -83.482479 36.026876 0.000000 0.000000 0.000000 -25.356922 -9.492146 -12.726680 30.845638 -24.144802 88.639206 -8.093123 -3.500973 -63.938914 1.800742 1.958979 -28.334280 5.589648 -0.142282 15.904555 0.000000 0.000000 0.000000 -12.446169 3.788142 -12.220074 -86.407710 -14.134512 28.785759 -15.602330 -50.542622 0.440044 -0.049099 3.606899 0.221468 -0.078698 3.603995 0.000000 0.000000 0.000000 0.000000 0.000000 0.000000 0.000000 2.780653 -4.854283 7.469229 75.393200 29.473440 -2.447291 36.912719 -4.566554 -0.283707 -2.011638 4.428713 -0.142138 -2.026493 4.429439 -0.000000 0.000000 0.000000 0.000000 0.000000 0.000000 0.000000 
-2.869828 18.208511 26.157136 -2.746485 25.670770 4.741487 -17.825974 4.775596 0.561196 -7.211447 -14.360806 -24.337994 3.686960 -10.408744 -6.855208 4.176494 13.705310 57.988640 0.000000 0.000000 0.000000 41.312306 10.473713 28.306682 -16.105888 15.343947 -20.901727 38.713822 28.646770 68.680861 26.928906 -83.547257 36.494919 0.000000 0.000000 0.000000 -26.383843 -9.992889 -15.537735 32.889745 -25.914175 92.441044 -9.515573 -5.250224 -66.908705 0.470448 2.638960 -29.760429 7.012980 -0.001522 16.482178 0.000000 0.000000 0.000000 -13.080152 2.435095 -12.795793 -86.785930 -13.374065 30.657254 -13.383716 -51.874481 0.408318 -0.248475 3.785878 0.205724 -0.278100 3.781270 0.000000 0.000000 0.000000 0.000000 0.000000 0.000000 0.000000 2.294803 -6.230405 6.949877 76.152057 28.457539 -2.221282 36.097258 -4.642843 -0.266368 -1.989545 4.393261 -0.133457 -2.003727 4.393712 -0.000000 0.000000 0.000000 0.000000 0.000000 0.000000 0.000000 
-2.924930 18.361761 26.411601 -2.718318 26.250723 5.687356 -17.680460 5.527466 1.678074 -6.663880 -14.626100 -24.979313 3.331594 -11.433825 -8.634672 4.434666 14.116409 59.013280 0.000000 0.000000 0.000000 42.289916 10.085777 29.224266 -18.595105 15.209434 -22.883535 35.137614 29.024169 66.904665 24.336820 -83.396118 38.108138 0.000000 0.000000 0.000000 -27.447414 -9.921862 -17.405745 34.885171 -27.362586 95.361525 -10.234487 -6.756455 -70.015238 -0.466576 3.211365 -31.040882 8.152630 0.146226 16.852068 0.000000 0.000000 0.000000 -13.820635 1.341611 -13.468833 -87.022424 -12.757812 32.491536 -11.245332 -53.016011 0.366092 -0.456806 3.918481 0.184725 -0.485885 3.912393 0.000000 0.000000 0.000000 0.000000 0.000000 0.000000 0.000000 2.050084 -7.655083 6.364330 76.653603 27.597448 -2.077965 35.401867 -4.874989 -0.252074 -1.964988 4.397324 -0.126305 -1.978772 4.397563 -0.000000 0.000000 0.000000 0.000000 0.000000 0.000000 0.000000 
